<svg width="82" height="78" viewBox="0 0 82 78" fill="none" xmlns="http://www.w3.org/2000/svg">
<path d="M71.4057 56.6621C75.2581 54.3883 77.8277 50.2997 77.8277 45.6339C77.8277 38.4929 71.8086 32.704 64.3837 32.704C56.9587 32.704 50.9396 38.4929 50.9396 45.6339C50.9396 50.2997 53.5092 54.3883 57.3617 56.6621C55.5706 57.3751 53.9215 58.362 52.5007 59.5918C49.3491 62.3198 47.5786 66.0196 47.5786 69.8775V77.9587H81.1887V69.8775C81.1887 66.0196 79.4182 62.3198 76.2666 59.5918C74.8458 58.362 73.1968 57.3751 71.4057 56.6621Z" fill="#42C99A"/>
<path d="M30.7737 33.4681H34.1348V43.2008H30.7737V33.4681Z" fill="white"/>
<path d="M30.7737 46.445H34.1348V49.6892H30.7737V46.445Z" fill="white"/>
<path d="M34.1348 20.4911V17.2469C40.8568 17.2469 44.2178 20.4911 44.2178 26.9796L40.8568 26.9796C40.8568 23.7354 37.4958 20.4911 34.1348 20.4911Z" fill="white"/>
<path d="M34.1348 33.4681L34.1348 36.7123C40.8568 36.7123 44.2178 33.4681 44.2178 26.9796L40.8568 26.9796C40.8568 30.2238 37.4958 33.4681 34.1348 33.4681Z" fill="white"/>
<path d="M34.1348 20.4911V17.2469C27.4128 17.2469 24.0518 20.4911 24.0518 26.9796L27.4128 26.9796C27.4128 23.7354 30.7738 20.4911 34.1348 20.4911Z" fill="white"/>
<path d="M57.7064 6.84415L17.5527 6.84415V10.0289L57.7064 10.0289C61.0525 10.0289 64.3986 13.2136 64.3986 16.3983V35.5065H67.7448V16.3983C67.7448 10.0289 64.3986 6.84415 57.7064 6.84415Z" fill="white"/>
<path d="M17.3296 55.3313C14.1173 55.3313 10.6076 52.4492 10.6076 49.3918V15.7613H7.24658V49.3918C7.24658 55.5065 10.4589 58.5638 16.8835 58.5638L36.1572 58.5638V55.3313H17.3296Z" fill="white"/>
<path d="M38.5664 58.5638V55.3313L44.991 55.2202V58.5638H38.5664Z" fill="white"/>
<path d="M50.9396 42.4014C50.9396 35.9365 54.3006 32.704 61.0227 32.704H67.7447C74.4667 32.704 77.8277 35.9365 77.8277 42.4014H81.1887V48.8664H77.8277C77.8277 55.3314 74.4667 58.5638 67.7447 58.5638V55.3314C71.1057 55.3314 74.4667 52.0989 74.4667 48.8664V42.4014C74.4667 39.169 71.1057 35.9365 67.7447 35.9365H61.0227C57.6616 35.9365 54.3006 39.169 54.3006 42.4014V48.8664H47.5786V42.4014H50.9396Z" fill="white"/>
<rect x="0.524414" y="3.61169" width="16.8051" height="9.69744" fill="#42C99A"/>
<path fill-rule="evenodd" clip-rule="evenodd" d="M3.88544 3.62301V0.379212L13.9686 0.379211V3.61142H17.3295L17.3295 13.3564H13.9686V16.6002H3.88544V13.3564H0.524414V3.62358L3.88544 3.62301ZM7.24649 13.3559V10.1117H3.88547V6.86729H7.24649V3.62348H10.6074V6.86729H13.9684V6.8439L13.9685 10.1121L10.6074 10.1117V13.3559H7.24649Z" fill="white"/>
</svg>
