<svg width="75" height="69" viewBox="0 0 75 69" fill="none" xmlns="http://www.w3.org/2000/svg">
<path d="M53.0637 3.655C47.9233 3.655 43.7563 7.45672 43.7563 12.1464V17.8073C43.7563 22.497 47.9233 26.2987 53.0637 26.2987H65.4735C70.6139 26.2987 74.7809 22.497 74.7809 17.8073V12.1464C74.7809 7.45672 70.6139 3.655 65.4735 3.655H53.0637Z" fill="white"/>
<path d="M9.62917 20.6378C4.48884 20.6378 0.321777 24.4395 0.321777 29.1292V40.451C0.321777 45.1407 4.48884 48.9424 9.62917 48.9424H25.1415C30.2818 48.9424 34.4489 45.1407 34.4489 40.451V29.1292C34.4489 24.4395 30.2818 20.6378 25.1415 20.6378H9.62917Z" fill="white"/>
<rect x="59.2686" y="3.655" width="15.5123" height="8.49139" fill="white"/>
<path d="M43.7564 14.9768C43.7564 9.31591 46.8589 6.48544 53.0638 6.48544H59.2688V9.31591L53.0638 9.3159C49.9614 9.31591 46.8589 12.1464 46.8589 14.9768V23.4682H43.7564V14.9768Z" fill="#42C99A"/>
<path d="M46.8589 26.2987H43.7564V23.4682H40.654V29.1291H37.5515V31.9596H40.654V29.1291H46.8589V26.2987Z" fill="#42C99A"/>
<path d="M74.7811 17.8073C74.7811 23.4682 71.6786 26.2987 65.4737 26.2987H46.8589V23.4682H65.4737C68.5762 23.4682 71.6786 20.6378 71.6786 17.8073V14.9768H74.7811V17.8073Z" fill="#42C99A"/>
<path d="M56.1663 17.8073H53.0638V20.6378H56.1663V17.8073Z" fill="#42C99A"/>
<path d="M62.3712 17.8073H59.2688V20.6378H62.3712V17.8073Z" fill="#42C99A"/>
<path d="M14.065 29.6438H17.5008V32.7316H14.065V29.6438Z" fill="#42C99A"/>
<path d="M14.065 38.9071H24.3724V41.9949H14.065V38.9071Z" fill="#42C99A"/>
<path d="M10.6292 35.8193H14.0649L14.065 38.9071L10.6292 38.9071V35.8193Z" fill="#42C99A"/>
<path d="M24.3723 35.8193H27.8081V38.9071L24.3724 38.9071L24.3723 35.8193Z" fill="#42C99A"/>
<path d="M20.9366 29.6438H24.3724V32.7316H20.9366V29.6438Z" fill="#42C99A"/>
<path d="M3.42424 32.9031V39.193H0.321777V32.9031C0.321777 26.6132 3.70634 23.4682 10.4753 23.4682H24.0133L24.0132 26.2987H10.4753C7.09082 26.2987 3.42424 29.7581 3.42424 32.9031Z" fill="#42C99A"/>
<path d="M10.4754 48.9424C3.70646 48.9424 0.321777 45.4829 0.321777 39.193H3.42424C3.42424 43.2814 6.52671 46.1119 11.0395 46.1119L31.3464 46.1119V48.9424L10.4754 48.9424Z" fill="#42C99A"/>
<path d="M37.5514 48.9424H34.4489V32.9031C34.4489 26.2987 31.3464 23.4682 24.0133 23.4682L24.0132 26.2987C28.244 26.2987 31.3464 29.1291 31.3464 32.9031V48.9424H34.4489V51.7728L37.5514 51.7728V48.9424Z" fill="#42C99A"/>
<path d="M31.3462 12.1464C28.2437 12.1464 25.1413 14.9768 25.1413 17.8073V23.4682H22.0388V17.8073C22.0388 12.1464 25.1413 9.31592 31.3462 9.31592H46.8585V12.1464L31.3462 12.1464Z" fill="#42C99A"/>
<path d="M22.0388 60.2642C22.0388 65.9252 25.1413 68.7556 31.3462 68.7556H37.5511V65.9252H31.3462C28.2437 65.9252 25.1413 63.0947 25.1413 60.2642V46.1119H22.0388V60.2642Z" fill="#42C99A"/>
<path d="M49.961 60.2642C49.961 63.0947 46.8585 65.9252 43.7561 65.9252V68.7556C49.961 68.7556 53.0635 65.9252 53.0635 60.2642V26.2987H49.961V60.2642Z" fill="#42C99A"/>
<path d="M40.6536 60.2642H34.4487V63.0947H40.6536V60.2642Z" fill="#42C99A"/>
<path d="M62.3712 3.65499V0.824524H71.6786V3.65499L74.7811 3.65499V12.1464H71.6786V14.9768H62.3712V12.1464L62.3712 9.31591H65.4737V12.1464H68.5761V9.31591H71.6786V6.48545H68.5761V3.65499H65.4737V6.48545H62.3712V12.1464L59.2686 12.1458V3.65442L62.3712 3.65499Z" fill="#42C99A"/>
</svg>
