<svg width="85" height="79" viewBox="0 0 85 79" fill="none" xmlns="http://www.w3.org/2000/svg">
<g filter="url(#filter0_d_232_461)">
<path d="M16.7222 13.6094C16.7222 8.22392 21.088 3.85809 26.4735 3.85809H35.465C40.8505 3.85809 45.2164 8.22392 45.2164 13.6094V21.2712H16.7222V13.6094Z" fill="white"/>
<path d="M17.0315 21.2712C10.3901 21.2712 7.22412 24.1734 7.22412 27.9462V54.9485C7.22412 60.2379 10.8691 61.9017 15.3653 61.9017H39.5936C39.6022 61.9018 39.6107 61.9018 39.6193 61.9018H52.0007C53.4995 61.9018 54.7144 60.4725 54.7144 58.7094V47.6811C54.7144 45.918 53.4995 44.4887 52.0007 44.4887H48.3824V27.9462C48.3824 22.6569 46.7994 21.2712 42.3031 21.2712H17.0315Z" fill="white"/>
<path fill-rule="evenodd" clip-rule="evenodd" d="M16.7222 21.2712L42.0504 21.2712C45.2164 21.2712 48.3824 24.1734 48.3824 27.0756V38.6843L32.5523 38.6843V41.5865L48.3824 41.5865V44.4887L32.5523 44.4887V47.3909H48.3824V51.7442C48.3824 52.5456 49.0911 53.1953 49.9654 53.1953C50.8397 53.1953 51.5484 52.5456 51.5484 51.7442V47.3909H54.7146V58.9996H42.0502V61.9018L80.0424 61.9018V58.9996H76.8766V44.4887C76.8766 38.6843 73.7106 35.7821 67.3785 35.7821H57.8803C56.1319 35.7823 54.7146 37.0816 54.7146 38.6843V44.4887H51.5484V27.0756C51.5484 21.2712 48.3824 18.369 42.0504 18.369H16.7222C10.3901 18.369 7.22413 21.2712 7.22413 27.0756L7.22413 58.9996C5.47558 58.9996 4.05811 60.299 4.05811 61.9018H32.5523V58.9996H10.3901V47.3909H29.3863V44.4887L10.3901 44.4887V41.5865L29.3863 41.5865V38.6843L10.3901 38.6843L10.3901 27.0756C10.3901 24.1734 13.5562 21.2712 16.7222 21.2712ZM73.7106 50.2931V44.4887C73.7106 41.5865 70.5446 38.6843 67.3785 38.6843H57.8807V58.9996H73.7106V53.1953H64.2125C64.2125 51.5924 65.63 50.2931 67.3785 50.2931H73.7106Z" fill="#42C99A"/>
<path d="M38.8843 58.9996H35.7183V61.9018H38.8843V58.9996Z" fill="#42C99A"/>
<path d="M29.3863 0.955902H32.5523V6.76027H29.3863V0.955902Z" fill="#42C99A"/>
<path d="M26.2202 9.66246C24.4717 9.66246 23.0542 10.9618 23.0542 12.5646V21.2712H26.2202V12.5646H35.7183V21.2712H38.8843V12.5646C38.8843 10.9618 37.4668 9.66246 35.7183 9.66246H26.2202Z" fill="#42C99A"/>
<path d="M16.7222 3.85809H13.5562V6.76027H16.7222V9.66246H19.8882V6.76027H16.7222V3.85809Z" fill="#42C99A"/>
<path d="M45.2164 6.76027H42.0503V9.66246H45.2164V6.76027Z" fill="#42C99A"/>
<path d="M45.2164 6.76027H48.3824V3.85809H45.2164V6.76027Z" fill="#42C99A"/>
<path d="M19.8882 15.4668V12.5646H13.5562V15.4668H19.8882Z" fill="#42C99A"/>
<path d="M48.3824 12.5646V15.4668H42.0503V12.5646H48.3824Z" fill="#42C99A"/>
<path d="M18.3052 70.6084C22.6766 70.6084 26.2202 67.36 26.2202 63.3529C26.2202 59.3459 22.6766 56.0975 18.3052 56.0975C13.9338 56.0975 10.3901 59.3459 10.3901 63.3529C10.3901 67.36 13.9338 70.6084 18.3052 70.6084Z" fill="#42C99A"/>
<path d="M59.4635 70.6084C63.8348 70.6084 67.3785 67.36 67.3785 63.3529C67.3785 59.3459 63.8348 56.0975 59.4635 56.0975C55.0921 56.0975 51.5484 59.3459 51.5484 63.3529C51.5484 67.36 55.0921 70.6084 59.4635 70.6084Z" fill="#42C99A"/>
<path d="M18.3052 67.7062C20.928 67.7062 23.0542 65.7572 23.0542 63.3529C23.0542 60.9487 20.928 58.9996 18.3052 58.9996C15.6824 58.9996 13.5562 60.9487 13.5562 63.3529C13.5562 65.7572 15.6824 67.7062 18.3052 67.7062Z" fill="white"/>
<path d="M59.4635 67.7062C62.0863 67.7062 64.2125 65.7572 64.2125 63.3529C64.2125 60.9487 62.0863 58.9996 59.4635 58.9996C56.8407 58.9996 54.7144 60.9487 54.7144 63.3529C54.7144 65.7572 56.8407 67.7062 59.4635 67.7062Z" fill="white"/>
<path d="M26.2207 38.6843V35.7821H35.7187V38.6843L38.8847 38.6843V47.3909H35.7187V50.2931H26.2207V47.3909L26.2207 44.4887H29.3867V47.3909H32.5527V44.4887H35.7187V41.5865H32.5527V38.6843H29.3867V41.5865H26.2207V47.3909L23.0544 47.3903V38.6837L26.2207 38.6843Z" fill="#42C99A"/>
</g>
<defs>
<filter id="filter0_d_232_461" x="0.0581055" y="0.955902" width="83.9844" height="77.6525" filterUnits="userSpaceOnUse" color-interpolation-filters="sRGB">
<feFlood flood-opacity="0" result="BackgroundImageFix"/>
<feColorMatrix in="SourceAlpha" type="matrix" values="0 0 0 0 0 0 0 0 0 0 0 0 0 0 0 0 0 0 127 0" result="hardAlpha"/>
<feOffset dy="4"/>
<feGaussianBlur stdDeviation="2"/>
<feComposite in2="hardAlpha" operator="out"/>
<feColorMatrix type="matrix" values="0 0 0 0 0 0 0 0 0 0 0 0 0 0 0 0 0 0 0.25 0"/>
<feBlend mode="normal" in2="BackgroundImageFix" result="effect1_dropShadow_232_461"/>
<feBlend mode="normal" in="SourceGraphic" in2="effect1_dropShadow_232_461" result="shape"/>
</filter>
</defs>
</svg>
