<svg width="22" height="21" viewBox="0 0 22 21" fill="none" xmlns="http://www.w3.org/2000/svg">
<path fill-rule="evenodd" clip-rule="evenodd" d="M19.7457 8.08634C19.8782 8.18964 19.978 8.32919 20.0329 8.48807C20.0751 8.64691 20.0714 8.81449 20.0222 8.97132C19.973 9.12815 19.8803 9.2678 19.7549 9.37405L16.1676 12.8485L17.0362 17.7822C17.0672 17.945 17.0509 18.1133 16.9894 18.2672C16.9278 18.4212 16.8235 18.5542 16.6887 18.6508C16.5397 18.7587 16.3602 18.8165 16.1763 18.8158C16.0363 18.8163 15.8986 18.7804 15.7767 18.7116L11.3468 16.3924L6.9169 18.7116C6.7712 18.794 6.6048 18.8325 6.43772 18.8225C6.27063 18.8126 6.10998 18.7546 5.9751 18.6555C5.84021 18.5564 5.73683 18.4204 5.67739 18.2639C5.61795 18.1075 5.60498 17.9371 5.64005 17.7735L6.50866 12.8398L2.92131 9.36536C2.80966 9.25394 2.73045 9.11422 2.69219 8.96119C2.65394 8.80817 2.65807 8.64761 2.70416 8.49675C2.7545 8.34238 2.84711 8.20521 2.97147 8.10081C3.09583 7.9964 3.24697 7.92895 3.40773 7.9061L8.3501 7.17647L10.5651 2.69446C10.6362 2.5476 10.7472 2.42375 10.8855 2.33709C11.0238 2.25043 11.1836 2.20447 11.3468 2.20447C11.51 2.20447 11.6698 2.25043 11.8081 2.33709C11.9464 2.42375 12.0574 2.5476 12.1285 2.69446L14.3435 7.18516L19.2859 7.9061C19.4533 7.92043 19.6131 7.98304 19.7457 8.08634Z" fill="#42C99A"/>
</svg>
