<svg width="21" height="21" viewBox="0 0 21 21" fill="none" xmlns="http://www.w3.org/2000/svg">
<path fill-rule="evenodd" clip-rule="evenodd" d="M18.8763 8.08634C19.0089 8.18964 19.1086 8.32919 19.1635 8.48807C19.2057 8.64691 19.202 8.81449 19.1528 8.97132C19.1036 9.12815 19.0109 9.2678 18.8855 9.37405L15.2982 12.8485L16.1668 17.7822C16.1978 17.945 16.1816 18.1133 16.12 18.2672C16.0584 18.4212 15.9541 18.5542 15.8193 18.6508C15.6703 18.7587 15.4909 18.8165 15.3069 18.8158C15.1669 18.8163 15.0292 18.7804 14.9073 18.7116L10.4774 16.3924L6.04752 18.7116C5.90182 18.794 5.73541 18.8325 5.56833 18.8225C5.40125 18.8126 5.2406 18.7546 5.10571 18.6555C4.97082 18.5564 4.86744 18.4204 4.808 18.2639C4.74856 18.1075 4.7356 17.9371 4.77066 17.7735L5.63927 12.8398L2.05192 9.36536C1.94027 9.25394 1.86107 9.11422 1.82281 8.96119C1.78455 8.80817 1.78869 8.64761 1.83477 8.49675C1.88512 8.34238 1.97772 8.20521 2.10209 8.10081C2.22645 7.9964 2.37758 7.92895 2.53834 7.9061L7.48072 7.17647L9.69567 2.69446C9.76679 2.5476 9.87785 2.42375 10.0161 2.33709C10.1544 2.25043 10.3142 2.20447 10.4774 2.20447C10.6406 2.20447 10.8005 2.25043 10.9387 2.33709C11.077 2.42375 11.188 2.5476 11.2592 2.69446L13.4741 7.18516L18.4165 7.9061C18.584 7.92043 18.7437 7.98304 18.8763 8.08634ZM13.6017 12.3138C13.6456 12.1806 13.721 12.0601 13.8216 11.9625L16.4274 9.36536L12.7705 8.83551C12.6298 8.81594 12.4961 8.76215 12.381 8.67886C12.2659 8.59557 12.173 8.48532 12.1104 8.35778L10.4775 5.03986V14.5434C10.4919 14.5427 10.5064 14.5424 10.5208 14.5424C10.6625 14.5424 10.8022 14.575 10.9291 14.6378L14.1951 16.375L13.5697 12.7269C13.5469 12.5886 13.5579 12.4469 13.6017 12.3138Z" fill="#42C99A"/>
</svg>
