<svg width="82" height="78" viewBox="0 0 82 78" fill="none" xmlns="http://www.w3.org/2000/svg">
<path d="M71.4052 56.6621C75.2576 54.3883 77.8272 50.2997 77.8272 45.6339C77.8272 38.4929 71.8081 32.704 64.3832 32.704C56.9582 32.704 50.9391 38.4929 50.9391 45.6339C50.9391 50.2997 53.5088 54.3883 57.3612 56.6621C55.5701 57.3751 53.921 58.362 52.5002 59.5918C49.3487 62.3198 47.5781 66.0196 47.5781 69.8775V77.9587H81.1882V69.8775C81.1882 66.0196 79.4177 62.3198 76.2661 59.5918C74.8453 58.362 73.1963 57.3751 71.4052 56.6621Z" fill="white"/>
<path d="M30.7733 33.4681H34.1343V43.2008H30.7733V33.4681Z" fill="#42C99A"/>
<path d="M30.7733 46.445H34.1343V49.6892H30.7733V46.445Z" fill="#42C99A"/>
<path d="M34.1343 20.4911V17.2469C40.8563 17.2469 44.2173 20.4911 44.2173 26.9796L40.8563 26.9796C40.8563 23.7354 37.4953 20.4911 34.1343 20.4911Z" fill="#42C99A"/>
<path d="M34.1343 33.4681L34.1343 36.7123C40.8563 36.7123 44.2173 33.4681 44.2173 26.9796L40.8563 26.9796C40.8563 30.2238 37.4953 33.4681 34.1343 33.4681Z" fill="#42C99A"/>
<path d="M34.1343 20.4911V17.2469C27.4123 17.2469 24.0513 20.4911 24.0513 26.9796L27.4123 26.9796C27.4123 23.7354 30.7733 20.4911 34.1343 20.4911Z" fill="#42C99A"/>
<path d="M57.7054 6.84415L17.5517 6.84415V10.0289L57.7054 10.0289C61.0515 10.0289 64.3977 13.2136 64.3977 16.3983V35.5065H67.7438V16.3983C67.7438 10.0289 64.3977 6.84415 57.7054 6.84415Z" fill="#42C99A"/>
<path d="M17.3286 55.3313C14.1163 55.3313 10.6066 52.4492 10.6066 49.3918V15.7613H7.24561V49.3918C7.24561 55.5065 10.4579 58.5638 16.8825 58.5638L36.1562 58.5638V55.3313H17.3286Z" fill="#42C99A"/>
<path d="M38.5655 58.5638V55.3313L44.9901 55.2202V58.5638H38.5655Z" fill="#42C99A"/>
<path d="M50.9391 42.4014C50.9391 35.9365 54.3001 32.704 61.0222 32.704H67.7442C74.4662 32.704 77.8272 35.9365 77.8272 42.4014H81.1882V48.8664H77.8272C77.8272 55.3314 74.4662 58.5638 67.7442 58.5638V55.3314C71.1052 55.3314 74.4662 52.0989 74.4662 48.8664V42.4014C74.4662 39.169 71.1052 35.9365 67.7442 35.9365H61.0222C57.6612 35.9365 54.3001 39.169 54.3001 42.4014V48.8664H47.5781V42.4014H50.9391Z" fill="#42C99A"/>
<rect x="0.52417" y="3.61169" width="16.8051" height="9.69744" fill="white"/>
<path fill-rule="evenodd" clip-rule="evenodd" d="M3.88519 3.62301V0.379212L13.9683 0.379211V3.61142H17.3292L17.3292 13.3564H13.9683V16.6002H3.88519V13.3564H0.52417V3.62358L3.88519 3.62301ZM7.24625 13.3559V10.1117H3.88522V6.86729H7.24625V3.62348H10.6071V6.86729H13.9682V6.8439L13.9682 10.1121L10.6071 10.1117V13.3559H7.24625Z" fill="#42C99A"/>
</svg>
