<svg width="75" height="69" viewBox="0 0 75 69" fill="none" xmlns="http://www.w3.org/2000/svg">
<path d="M53.0634 3.655C47.9231 3.655 43.756 7.45672 43.756 12.1464V17.8073C43.756 22.497 47.9231 26.2987 53.0634 26.2987H65.4733C70.6136 26.2987 74.7807 22.497 74.7807 17.8073V12.1464C74.7807 7.45672 70.6136 3.655 65.4733 3.655H53.0634Z" fill="#42C99A"/>
<path d="M9.62893 20.6378C4.48859 20.6378 0.321533 24.4395 0.321533 29.1292V40.451C0.321533 45.1407 4.48859 48.9424 9.62892 48.9424H25.1412C30.2816 48.9424 34.4486 45.1407 34.4486 40.451V29.1292C34.4486 24.4395 30.2816 20.6378 25.1412 20.6378H9.62893Z" fill="#42C99A"/>
<rect x="59.2683" y="3.655" width="15.5123" height="8.49139" fill="#42C99A"/>
<path d="M43.7562 14.9768C43.7562 9.31591 46.8587 6.48544 53.0636 6.48544H59.2685V9.31591L53.0636 9.3159C49.9611 9.31591 46.8587 12.1464 46.8587 14.9768V23.4682H43.7562V14.9768Z" fill="white"/>
<path d="M46.8587 26.2987H43.7562V23.4682H40.6537V29.1291H37.5513V31.9596H40.6537V29.1291H46.8587V26.2987Z" fill="white"/>
<path d="M74.7808 17.8073C74.7808 23.4682 71.6784 26.2987 65.4734 26.2987H46.8587V23.4682H65.4734C68.5759 23.4682 71.6784 20.6378 71.6784 17.8073V14.9768H74.7808V17.8073Z" fill="white"/>
<path d="M56.1661 17.8073H53.0636V20.6378H56.1661V17.8073Z" fill="white"/>
<path d="M62.371 17.8073H59.2685V20.6378H62.371V17.8073Z" fill="white"/>
<path d="M14.0648 29.6438H17.5006V32.7316H14.0648V29.6438Z" fill="white"/>
<path d="M14.0648 38.9071H24.3722V41.9949H14.0648V38.9071Z" fill="white"/>
<path d="M10.6289 35.8193H14.0647L14.0648 38.9071L10.6289 38.9071V35.8193Z" fill="white"/>
<path d="M24.3721 35.8193H27.8079V38.9071L24.3722 38.9071L24.3721 35.8193Z" fill="white"/>
<path d="M20.9364 29.6438H24.3722V32.7316H20.9364V29.6438Z" fill="white"/>
<path d="M3.424 32.9031V39.193H0.321533V32.9031C0.321533 26.6132 3.7061 23.4682 10.4751 23.4682H24.013L24.013 26.2987H10.4751C7.09058 26.2987 3.424 29.7581 3.424 32.9031Z" fill="white"/>
<path d="M10.4752 48.9424C3.70621 48.9424 0.321533 45.4829 0.321533 39.193H3.424C3.424 43.2814 6.52646 46.1119 11.0392 46.1119L31.3462 46.1119V48.9424L10.4752 48.9424Z" fill="white"/>
<path d="M37.5511 48.9424H34.4486V32.9031C34.4486 26.2987 31.3462 23.4682 24.013 23.4682L24.013 26.2987C28.2437 26.2987 31.3462 29.1291 31.3462 32.9031V48.9424H34.4486V51.7728L37.5511 51.7728V48.9424Z" fill="white"/>
<path d="M31.346 12.1464C28.2435 12.1464 25.141 14.9768 25.141 17.8073V23.4682H22.0386V17.8073C22.0386 12.1464 25.141 9.31592 31.346 9.31592H46.8583V12.1464L31.346 12.1464Z" fill="white"/>
<path d="M22.0386 60.2642C22.0386 65.9252 25.141 68.7556 31.346 68.7556H37.5509V65.9252H31.346C28.2435 65.9252 25.141 63.0947 25.141 60.2642V46.1119H22.0386V60.2642Z" fill="white"/>
<path d="M49.9607 60.2642C49.9607 63.0947 46.8583 65.9252 43.7558 65.9252V68.7556C49.9607 68.7556 53.0632 65.9252 53.0632 60.2642V26.2987H49.9607V60.2642Z" fill="white"/>
<path d="M40.6534 60.2642H34.4484V63.0947H40.6534V60.2642Z" fill="white"/>
<path d="M62.371 3.65499V0.824524H71.6784V3.65499L74.7808 3.65499V12.1464H71.6784V14.9768H62.371V12.1464L62.371 9.31591H65.4734V12.1464H68.5759V9.31591H71.6784V6.48545H68.5759V3.65499H65.4734V6.48545H62.371V12.1464L59.2683 12.1458V3.65442L62.371 3.65499Z" fill="white"/>
</svg>
