<svg width="74" height="73" viewBox="0 0 74 73" fill="none" xmlns="http://www.w3.org/2000/svg">
<rect x="3.9668" y="12.8289" width="9.00326" height="9.08581" transform="rotate(-90 3.9668 12.8289)" fill="white"/>
<path d="M69.8846 24.9858C70.5006 24.3998 70.5006 23.4497 69.8846 22.8637L63.6066 16.8916C62.9906 16.3056 61.9919 16.3056 61.3759 16.8916L27.4179 49.195C26.8019 49.781 26.8019 50.7311 27.4179 51.3171L33.6958 57.2892C34.3119 57.8752 35.3106 57.8752 35.9266 57.2892L69.8846 24.9858Z" fill="white"/>
<path d="M34.2529 60.8463H16.0813V63.8474H34.2529V60.8463Z" fill="white"/>
<path d="M61.4845 16.2419C62.0878 15.668 63.066 15.668 63.6693 16.2419L70.3628 22.6093C70.9661 23.1832 70.9661 24.1137 70.3628 24.6877L69.2244 25.7706L60.3461 17.3248L61.4845 16.2419Z" fill="#42C99A"/>
<path fill-rule="evenodd" clip-rule="evenodd" d="M68.0623 26.4232L60.0812 18.831L59.5389 18.3175L34.3018 42.325L31.5294 39.6877L29.2987 41.8098L42.213 54.0949L44.4438 51.9728L43.006 50.6051L49.3959 44.5265V63.8473H36.9755C36.068 59.8459 33.1414 57.8452 28.1957 57.8452H22.1385C17.1928 57.8452 14.2661 59.8459 13.3586 63.8473H10.024V63.851C3.96684 63.9698 0.938232 66.9697 0.938232 72.8506H10.024V69.8495H5.10242C6.28433 68.127 8.34347 66.8484 10.4026 66.8484H64.5389C66.5157 66.8484 68.4925 68.127 69.6271 69.8495H22.1385V72.8506H73.6247C73.6247 66.8484 70.5961 63.8473 64.5389 63.8473H58.4817V35.8833L68.2291 26.6109L68.0471 26.4377L68.0623 26.4232ZM55.4531 38.7644L52.4245 41.6454V63.8473H55.4531V38.7644ZM36.5326 44.4471L59.5401 22.5605L63.6189 26.4405L40.6113 48.3271L36.5326 44.4471ZM28.1957 60.8463C30.1724 60.8463 32.1492 62.1248 33.2839 63.8473H17.0503C18.1849 62.1248 20.1617 60.8463 22.1385 60.8463H28.1957Z" fill="#42C99A"/>
<path d="M35.5134 49.4796L28.5334 42.8397L26.3026 44.9618L33.2826 51.6017L35.5134 49.4796Z" fill="#42C99A"/>
<path d="M37.7804 51.6367L41.4472 55.1249L39.2164 57.247L35.5496 53.7588L37.7804 51.6367Z" fill="#42C99A"/>
<path d="M13.0526 69.8495H16.0813V72.8506H13.0526V69.8495Z" fill="#42C99A"/>
<path d="M23.148 25.1973L25.3787 23.0753L23.148 20.9532L25.3788 18.8311L27.6095 20.9532L29.8403 18.8311L32.0711 20.9531L29.8403 23.0753L32.0711 25.1974L29.8403 27.3195L27.6095 25.1974L25.3788 27.3194L23.148 25.1973Z" fill="#42C99A"/>
<path d="M8.68024 35.9586L6.44946 38.0807L8.68024 40.2028L6.44946 42.3249L8.68024 44.447L10.911 42.3249L13.1418 44.447L15.3726 42.3249L13.1418 40.2028L15.3726 38.0807L13.1418 35.9586L10.911 38.0807L8.68024 35.9586Z" fill="#42C99A"/>
<path d="M3.96702 3.82561V0.824524H13.0528V3.82561L16.0814 3.82561V12.8289H13.0528V15.83H3.96702V12.8289L3.96702 9.82778H6.99562V12.8289H10.0242V9.82778H13.0528V6.8267H10.0242V3.82561H6.99562V6.8267H3.96702V12.8289L0.938232 12.8283V3.82502L3.96702 3.82561Z" fill="#42C99A"/>
</svg>
