<svg width="37" height="37" viewBox="0 0 37 37" fill="none" xmlns="http://www.w3.org/2000/svg">
<path d="M18.1328 8.98851C13.0302 8.98851 8.91211 13.1066 8.91211 18.2092C8.91211 23.3119 13.0302 27.43 18.1328 27.43C23.2355 27.43 27.3536 23.3119 27.3536 18.2092C27.3536 13.1066 23.2355 8.98851 18.1328 8.98851ZM18.1328 24.202C14.833 24.202 12.14 21.5091 12.14 18.2092C12.14 14.9094 14.833 12.2164 18.1328 12.2164C21.4327 12.2164 24.1256 14.9094 24.1256 18.2092C24.1256 21.5091 21.4327 24.202 18.1328 24.202ZM27.7312 6.46192C26.5398 6.46192 25.5777 7.424 25.5777 8.61537C25.5777 9.80673 26.5398 10.7688 27.7312 10.7688C28.9226 10.7688 29.8847 9.81123 29.8847 8.61537C29.885 8.33247 29.8295 8.05229 29.7215 7.79086C29.6134 7.52943 29.4547 7.29189 29.2547 7.09186C29.0547 6.89182 28.8171 6.73321 28.5557 6.62511C28.2943 6.51702 28.0141 6.46156 27.7312 6.46192V6.46192Z" fill="#404040"/>
<path d="M36.1066 18.2095C36.1066 15.7279 36.1291 13.2687 35.9897 10.7916C35.8504 7.9143 35.194 5.36073 33.09 3.25674C30.9815 1.14824 28.4324 0.496363 25.5552 0.356995C23.0735 0.217628 20.6144 0.240107 18.1372 0.240107C15.6556 0.240107 13.1964 0.217628 10.7193 0.356995C7.84204 0.496363 5.28847 1.15274 3.18447 3.25674C1.07598 5.36523 0.424097 7.9143 0.28473 10.7916C0.145362 13.2732 0.167841 15.7324 0.167841 18.2095C0.167841 20.6866 0.145362 23.1503 0.28473 25.6274C0.424097 28.5047 1.08047 31.0583 3.18447 33.1623C5.29296 35.2708 7.84204 35.9226 10.7193 36.062C13.2009 36.2014 15.6601 36.1789 18.1372 36.1789C20.6189 36.1789 23.078 36.2014 25.5552 36.062C28.4324 35.9226 30.986 35.2663 33.09 33.1623C35.1985 31.0538 35.8504 28.5047 35.9897 25.6274C36.1336 23.1503 36.1066 20.6911 36.1066 18.2095V18.2095ZM32.1504 28.8104C31.8222 29.6286 31.4266 30.2401 30.7927 30.8695C30.1588 31.5033 29.5519 31.899 28.7336 32.2272C26.3689 33.1668 20.7537 32.9555 18.1327 32.9555C15.5117 32.9555 9.89208 33.1668 7.52734 32.2317C6.70911 31.9035 6.0977 31.5078 5.4683 30.8739C4.8344 30.2401 4.43878 29.6331 4.11059 28.8149C3.17548 26.4457 3.38678 20.8305 3.38678 18.2095C3.38678 15.5885 3.17548 9.96885 4.11059 7.6041C4.43878 6.78588 4.8344 6.17446 5.4683 5.54506C6.10219 4.91566 6.70911 4.51554 7.52734 4.18735C9.89208 3.25224 15.5117 3.46354 18.1327 3.46354C20.7537 3.46354 26.3734 3.25224 28.7381 4.18735C29.5564 4.51554 30.1678 4.91116 30.7972 5.54506C31.4311 6.17895 31.8267 6.78588 32.1549 7.6041C33.09 9.96885 32.8787 15.5885 32.8787 18.2095C32.8787 20.8305 33.09 26.4457 32.1504 28.8104Z" fill="#404040"/>
</svg>
