<svg width="40" height="40" viewBox="0 0 40 40" fill="none" xmlns="http://www.w3.org/2000/svg">
<path d="M19.945 0.86792C9.15239 0.86792 0.401367 9.61894 0.401367 20.4116C0.401367 31.2042 9.15239 39.9552 19.945 39.9552C30.7377 39.9552 39.4887 31.2042 39.4887 20.4116C39.4887 9.61894 30.7377 0.86792 19.945 0.86792ZM29.3373 15.5998C29.3504 15.8049 29.3504 16.0186 29.3504 16.228C29.3504 22.6321 24.4732 30.0089 15.5608 30.0089C12.8125 30.0089 10.2648 29.2106 8.1185 27.8364C8.51112 27.8801 8.88628 27.8975 9.28763 27.8975C11.5561 27.8975 13.6413 27.1297 15.3034 25.8297C13.1745 25.7861 11.386 24.3901 10.7752 22.4706C11.5212 22.5797 12.193 22.5797 12.9608 22.3834C11.8646 22.1607 10.8794 21.5654 10.1724 20.6986C9.46543 19.8317 9.08035 18.7469 9.08259 17.6284V17.5673C9.72387 17.9294 10.4786 18.1518 11.2682 18.1824C10.6044 17.74 10.06 17.1407 9.68335 16.4375C9.30667 15.7344 9.10931 14.9492 9.10877 14.1515C9.10877 13.2485 9.34434 12.424 9.76749 11.7085C10.9842 13.2063 12.5024 14.4313 14.2236 15.3039C15.9447 16.1765 17.8302 16.6771 19.7574 16.7733C19.0725 13.4797 21.533 10.8142 24.4907 10.8142C25.8867 10.8142 27.143 11.3988 28.0286 12.3411C29.1236 12.1361 30.1706 11.726 31.1041 11.1763C30.742 12.2975 29.983 13.2441 28.9753 13.8418C29.9524 13.7371 30.8947 13.4666 31.7672 13.0871C31.1085 14.0555 30.284 14.9149 29.3373 15.5998Z" fill="#404040"/>
</svg>
